<svg id="maufirflogo-svg" data-name="maufirflogo-svg" xmlns="http://www.w3.org/2000/svg" viewBox="0 0 184.8 147.36"><defs><style>.cls-1{fill:#dda0dd;fill-rule:evenodd;}</style></defs><title>maufirflogo-plum</title><path class="cls-1" d="M65.18,81.31h54.47L95.42,66.24h0l-38.57-24h0l-10.2-6.35v15l-30.5,19V0H46.63V0L85.79,24.32,121.28,46.4l14.36,8.94,33,20.55,5.83,3.63,10.28,6.4-16.11,25.9H16.13L0,85.93l16.13-10h0l30.5-19L58.73,49.4l28.87,18-22.42,14Zm103.49,66.1V116.9H138.16v30.51Zm-122,0V116.9H16.15v30.51Zm91.51-96.12.17-.27L168.67,69.9V0H138.16L97.22,25.45l28.87,18,12.07-7.51Z" comments="Yo what the fuck you need my logo for"/></svg>